<svg 
 xmlns="http://www.w3.org/2000/svg"
 height="91px" viewBox="0 0 94 91">
  <path d="M47.008,0.981 C44.676,0.981 42.699,3.231 42.023,6.377 C18.421,8.462 0.019,25.225 0.019,45.506 L0.259,45.506 C1.356,42.501 6.096,40.263 11.769,40.263 C17.440,40.263 22.167,42.501 23.264,45.506 L23.763,45.506 C24.856,42.501 29.587,40.263 35.256,40.263 C40.926,40.263 45.657,42.501 46.750,45.506 L47.249,45.506 C48.346,42.501 53.072,40.263 58.744,40.263 C64.416,40.263 69.157,42.501 70.253,45.506 L70.736,45.506 C71.832,42.501 76.560,40.263 82.229,40.263 C87.916,40.263 92.643,42.501 93.739,45.506 L93.981,45.506 C93.981,25.225 75.577,8.462 51.977,6.377 C51.301,3.231 49.324,0.981 47.008,0.981 L47.008,0.981 ZM41.781,46.568 L41.781,76.925 C41.781,78.383 40.623,79.546 39.169,79.546 C37.729,79.546 36.554,78.383 36.554,76.925 C36.554,74.022 34.238,71.695 31.344,71.695 C28.451,71.695 26.119,74.022 26.119,76.925 C26.119,77.296 26.132,77.654 26.210,77.986 C26.758,84.712 32.336,90.019 39.169,90.019 C46.369,90.019 52.219,84.163 52.219,76.925 L52.219,46.568 C49.695,47.501 47.873,49.010 47.249,50.736 L46.750,50.736 C46.127,49.010 44.303,47.501 41.781,46.568 L41.781,46.568 Z"/>
</svg>