<svg 
 xmlns="http://www.w3.org/2000/svg"
 height="32px" viewBox="0 0 44 32">
  <path d="M39.010,14.316 C41.478,14.111 43.154,12.985 43.801,11.456 C42.910,12.005 40.143,12.608 38.614,12.032 C38.540,11.677 38.457,11.332 38.375,11.025 C37.209,6.733 33.226,3.281 29.049,3.701 C29.385,3.566 29.729,3.431 30.071,3.318 C30.532,3.157 33.230,2.715 32.803,1.757 C32.443,0.922 29.151,2.392 28.529,2.586 C29.348,2.279 30.704,1.751 30.849,0.803 C29.591,0.976 28.361,1.568 27.410,2.441 C27.753,2.064 28.014,1.611 28.069,1.126 C24.721,3.270 22.766,7.594 21.185,11.790 C19.942,10.578 18.841,9.630 17.855,9.102 C15.083,7.611 11.767,6.060 6.567,4.121 C6.408,5.844 7.416,8.144 10.329,9.668 C9.700,9.582 8.546,9.770 7.625,9.991 C7.999,11.973 9.226,13.599 12.550,14.386 C11.032,14.488 10.248,14.832 9.533,15.581 C10.227,16.954 11.915,18.575 14.951,18.242 C11.576,19.701 13.576,22.405 16.320,22.001 C11.638,26.853 4.249,26.498 0.007,22.437 C11.080,37.576 35.155,31.393 38.743,16.809 C41.433,16.836 43.014,15.872 43.993,14.822 C42.444,15.086 40.200,14.811 39.010,14.316 Z"/>
</svg>