<svg 
 xmlns="http://www.w3.org/2000/svg"
 height="110px" viewBox="0 0 114 110">
  <path d="M106.916,56.102 C99.062,60.362 90.701,53.596 90.701,53.596 L91.715,103.710 C91.715,103.710 83.607,103.960 64.859,108.721 C46.111,113.482 24.829,103.209 24.829,103.209 L25.336,56.603 C25.336,56.603 31.416,55.100 23.309,56.102 C15.201,57.104 -0.000,45.077 -0.000,45.077 C-0.000,45.077 3.800,36.558 10.641,22.526 C17.481,8.494 21.282,9.998 23.309,9.496 C25.336,8.995 40.030,3.984 40.030,3.984 C59.032,16.262 74.487,2.481 74.487,2.481 L76.007,2.481 C76.007,2.481 79.554,4.986 86.141,7.492 C92.728,9.998 102.356,15.510 105.396,19.519 C108.436,23.528 114.010,52.093 114.010,52.093 C114.010,52.093 114.770,51.842 106.916,56.102 ZM41.615,2.481 L44.112,-0.000 C51.270,5.953 71.578,-0.000 71.578,-0.000 L73.243,1.654 C54.599,11.907 41.615,2.481 41.615,2.481 Z"/>
</svg>