<svg
  xmlns="http://www.w3.org/2000/svg"
  height="120px" viewBox="0 0 61 120">
  <path d="M58.188,48.400 C58.188,48.400 52.384,109.940 58.769,116.568 C58.769,116.568 41.356,120.355 35.552,118.461 C35.552,118.461 33.810,59.762 33.810,54.460 C33.810,49.158 30.328,43.477 30.328,43.477 C30.328,43.477 28.296,55.785 28.006,60.898 C27.716,66.010 25.684,118.840 25.684,118.840 C25.684,118.840 9.432,122.438 2.467,116.947 C2.467,116.947 6.240,82.295 5.369,65.442 C4.498,48.590 -2.177,19.997 0.726,13.938 C3.628,7.879 3.628,7.500 3.628,7.500 L57.028,8.257 C57.028,8.257 65.154,19.808 58.188,48.400 ZM4.946,-0.000 L54.405,-0.000 L56.054,6.667 L4.122,4.166 L4.946,-0.000 Z"/>
</svg>
