<svg 
 xmlns="http://www.w3.org/2000/svg"
 height="26px" viewBox="0 0 29 26">
  <path d="M14.073,0.007 C13.036,0.007 12.186,0.714 11.994,1.680 L11.940,1.680 L5.115,9.227 L8.527,9.227 L13.248,4.013 C13.502,4.119 13.781,4.198 14.073,4.198 C14.369,4.198 14.643,4.119 14.903,4.013 L19.618,9.227 L23.036,9.227 L16.206,1.680 L16.151,1.680 C15.965,0.714 15.115,0.007 14.073,0.007 L14.073,0.007 ZM1.703,10.902 C0.756,10.902 -0.006,11.651 -0.006,12.581 L-0.006,13.419 C-0.006,14.303 0.685,14.999 1.569,15.069 L4.260,24.315 C5.115,25.993 5.969,25.993 6.818,25.993 L22.181,25.993 C23.036,25.993 23.885,25.993 24.740,24.315 L27.436,15.069 C28.315,14.999 29.006,14.303 29.006,13.419 L29.006,12.581 C29.006,11.651 28.248,10.902 27.303,10.902 L1.703,10.902 L1.703,10.902 ZM6.503,15.093 L6.927,15.093 C7.873,15.093 8.807,15.793 9.006,16.665 L10.206,21.881 C10.407,22.756 9.794,23.476 8.848,23.476 L8.418,23.476 C7.473,23.476 6.540,22.756 6.340,21.881 L5.140,16.665 C4.940,15.793 5.556,15.093 6.503,15.093 L6.503,15.093 ZM14.503,15.093 C15.448,15.093 16.206,15.843 16.206,16.772 L16.206,21.802 C16.206,22.732 15.448,23.476 14.503,23.476 C13.556,23.476 12.794,22.732 12.794,21.802 L12.794,16.772 C12.794,15.843 13.556,15.093 14.503,15.093 L14.503,15.093 ZM22.073,15.093 L22.503,15.093 C23.448,15.093 24.060,15.793 23.860,16.665 L22.660,21.881 C22.460,22.756 21.528,23.476 20.581,23.476 L20.151,23.476 C19.207,23.476 18.594,22.756 18.794,21.881 L19.994,16.665 C20.194,15.793 21.127,15.093 22.073,15.093 L22.073,15.093 Z"/>
</svg>