<svg 
 xmlns="http://www.w3.org/2000/svg"
 height="32px" viewBox="0 0 31 32">
  <path d="M7.094,24.295 C7.830,25.031 8.277,26.029 8.281,27.138 C8.277,28.248 7.830,29.247 7.096,29.978 L7.094,29.980 C6.359,30.711 5.356,31.158 4.237,31.158 C3.124,31.158 2.124,30.709 1.388,29.978 C0.655,29.247 0.205,28.250 0.205,27.138 C0.205,26.029 0.655,25.031 1.388,24.295 L1.388,24.295 C2.124,23.564 3.124,23.115 4.237,23.115 C5.356,23.115 6.357,23.568 7.094,24.295 ZM7.094,24.295 L7.094,24.295 L7.096,24.295 L7.094,24.295 ZM1.388,29.980 L1.388,29.978 L1.388,29.978 L1.388,29.980 ZM0.208,11.138 L0.208,16.942 C3.998,16.944 7.580,18.432 10.262,21.116 C12.944,23.796 14.424,27.381 14.430,31.184 L14.432,31.184 L14.432,31.195 L20.258,31.195 C20.254,25.668 18.008,20.661 14.374,17.026 C10.742,13.392 5.736,11.142 0.208,11.138 ZM0.218,0.805 L0.218,6.607 C13.762,6.614 24.769,17.640 24.778,31.195 L30.595,31.195 C30.591,22.818 27.186,15.228 21.682,9.719 C16.179,4.218 8.594,0.808 0.218,0.805 Z"/>
</svg>