<svg 
 xmlns="http://www.w3.org/2000/svg"
 height="32px" viewBox="0 0 15 32">
  <path d="M3.714,6.692 C3.714,7.456 3.714,10.873 3.714,10.873 L0.603,10.873 L0.603,15.991 L3.714,15.991 L3.714,31.195 L10.106,31.195 L10.106,15.991 L14.392,15.991 C14.392,15.991 14.794,13.537 14.988,10.856 C14.431,10.856 10.129,10.856 10.129,10.856 C10.129,10.856 10.129,7.879 10.129,7.358 C10.129,6.833 10.826,6.132 11.515,6.132 C12.202,6.132 13.652,6.132 14.996,6.132 C14.996,5.434 14.996,3.027 14.996,0.805 C13.202,0.805 11.163,0.805 10.262,0.805 C3.555,0.805 3.714,5.928 3.714,6.692 Z"/>
</svg>