<svg xmlns="http://www.w3.org/2000/svg" xmlns:xlink="http://www.w3.org/1999/xlink"><symbol id="icon-accessories" viewBox="0 0 94 91">
  <path d="M47.008,0.981 C44.676,0.981 42.699,3.231 42.023,6.377 C18.421,8.462 0.019,25.225 0.019,45.506 L0.259,45.506 C1.356,42.501 6.096,40.263 11.769,40.263 C17.440,40.263 22.167,42.501 23.264,45.506 L23.763,45.506 C24.856,42.501 29.587,40.263 35.256,40.263 C40.926,40.263 45.657,42.501 46.750,45.506 L47.249,45.506 C48.346,42.501 53.072,40.263 58.744,40.263 C64.416,40.263 69.157,42.501 70.253,45.506 L70.736,45.506 C71.832,42.501 76.560,40.263 82.229,40.263 C87.916,40.263 92.643,42.501 93.739,45.506 L93.981,45.506 C93.981,25.225 75.577,8.462 51.977,6.377 C51.301,3.231 49.324,0.981 47.008,0.981 L47.008,0.981 ZM41.781,46.568 L41.781,76.925 C41.781,78.383 40.623,79.546 39.169,79.546 C37.729,79.546 36.554,78.383 36.554,76.925 C36.554,74.022 34.238,71.695 31.344,71.695 C28.451,71.695 26.119,74.022 26.119,76.925 C26.119,77.296 26.132,77.654 26.210,77.986 C26.758,84.712 32.336,90.019 39.169,90.019 C46.369,90.019 52.219,84.163 52.219,76.925 L52.219,46.568 C49.695,47.501 47.873,49.010 47.249,50.736 L46.750,50.736 C46.127,49.010 44.303,47.501 41.781,46.568 L41.781,46.568 Z"/>
</symbol><symbol id="icon-arrow-down" viewBox="0 0 12 12">
  <path d="M0.663,-0.000 C1.217,-0.000 10.941,-0.000 11.323,-0.000 C11.819,-0.000 12.188,0.533 11.898,1.061 C11.666,1.483 6.979,9.930 6.578,10.651 C6.315,11.124 5.687,11.116 5.424,10.651 C5.130,10.132 0.419,1.653 0.092,1.039 C-0.148,0.589 0.117,-0.000 0.663,-0.000 Z"/>
</symbol><symbol id="icon-cart" viewBox="0 0 29 26">
  <path d="M14.073,0.007 C13.036,0.007 12.186,0.714 11.994,1.680 L11.940,1.680 L5.115,9.227 L8.527,9.227 L13.248,4.013 C13.502,4.119 13.781,4.198 14.073,4.198 C14.369,4.198 14.643,4.119 14.903,4.013 L19.618,9.227 L23.036,9.227 L16.206,1.680 L16.151,1.680 C15.965,0.714 15.115,0.007 14.073,0.007 L14.073,0.007 ZM1.703,10.902 C0.756,10.902 -0.006,11.651 -0.006,12.581 L-0.006,13.419 C-0.006,14.303 0.685,14.999 1.569,15.069 L4.260,24.315 C5.115,25.993 5.969,25.993 6.818,25.993 L22.181,25.993 C23.036,25.993 23.885,25.993 24.740,24.315 L27.436,15.069 C28.315,14.999 29.006,14.303 29.006,13.419 L29.006,12.581 C29.006,11.651 28.248,10.902 27.303,10.902 L1.703,10.902 L1.703,10.902 ZM6.503,15.093 L6.927,15.093 C7.873,15.093 8.807,15.793 9.006,16.665 L10.206,21.881 C10.407,22.756 9.794,23.476 8.848,23.476 L8.418,23.476 C7.473,23.476 6.540,22.756 6.340,21.881 L5.140,16.665 C4.940,15.793 5.556,15.093 6.503,15.093 L6.503,15.093 ZM14.503,15.093 C15.448,15.093 16.206,15.843 16.206,16.772 L16.206,21.802 C16.206,22.732 15.448,23.476 14.503,23.476 C13.556,23.476 12.794,22.732 12.794,21.802 L12.794,16.772 C12.794,15.843 13.556,15.093 14.503,15.093 L14.503,15.093 ZM22.073,15.093 L22.503,15.093 C23.448,15.093 24.060,15.793 23.860,16.665 L22.660,21.881 C22.460,22.756 21.528,23.476 20.581,23.476 L20.151,23.476 C19.207,23.476 18.594,22.756 18.794,21.881 L19.994,16.665 C20.194,15.793 21.127,15.093 22.073,15.093 L22.073,15.093 Z"/>
</symbol><symbol id="icon-facebook" viewBox="0 0 15 32">
  <path d="M3.714,6.692 C3.714,7.456 3.714,10.873 3.714,10.873 L0.603,10.873 L0.603,15.991 L3.714,15.991 L3.714,31.195 L10.106,31.195 L10.106,15.991 L14.392,15.991 C14.392,15.991 14.794,13.537 14.988,10.856 C14.431,10.856 10.129,10.856 10.129,10.856 C10.129,10.856 10.129,7.879 10.129,7.358 C10.129,6.833 10.826,6.132 11.515,6.132 C12.202,6.132 13.652,6.132 14.996,6.132 C14.996,5.434 14.996,3.027 14.996,0.805 C13.202,0.805 11.163,0.805 10.262,0.805 C3.555,0.805 3.714,5.928 3.714,6.692 Z"/>
</symbol><symbol id="icon-hat" viewBox="0 0 126 81">
  <path d="M66.427,54.483 L98.019,39.078 L126.000,48.140 C126.000,48.140 97.567,80.762 66.427,54.483 ZM1.642,59.014 C1.574,58.563 1.508,58.122 1.437,57.655 C-6.235,6.683 39.348,0.566 39.348,0.566 C86.059,-5.324 94.859,36.360 94.859,36.360 C68.006,59.014 2.340,59.014 2.340,59.014 L1.642,59.014 Z"/>
</symbol><symbol id="icon-rss" viewBox="0 0 31 32">
  <path d="M7.094,24.295 C7.830,25.031 8.277,26.029 8.281,27.138 C8.277,28.248 7.830,29.247 7.096,29.978 L7.094,29.980 C6.359,30.711 5.356,31.158 4.237,31.158 C3.124,31.158 2.124,30.709 1.388,29.978 C0.655,29.247 0.205,28.250 0.205,27.138 C0.205,26.029 0.655,25.031 1.388,24.295 L1.388,24.295 C2.124,23.564 3.124,23.115 4.237,23.115 C5.356,23.115 6.357,23.568 7.094,24.295 ZM7.094,24.295 L7.094,24.295 L7.096,24.295 L7.094,24.295 ZM1.388,29.980 L1.388,29.978 L1.388,29.978 L1.388,29.980 ZM0.208,11.138 L0.208,16.942 C3.998,16.944 7.580,18.432 10.262,21.116 C12.944,23.796 14.424,27.381 14.430,31.184 L14.432,31.184 L14.432,31.195 L20.258,31.195 C20.254,25.668 18.008,20.661 14.374,17.026 C10.742,13.392 5.736,11.142 0.208,11.138 ZM0.218,0.805 L0.218,6.607 C13.762,6.614 24.769,17.640 24.778,31.195 L30.595,31.195 C30.591,22.818 27.186,15.228 21.682,9.719 C16.179,4.218 8.594,0.808 0.218,0.805 Z"/>
</symbol><symbol id="icon-shoes" viewBox="0 0 104 72">
  <path d="M100.173,71.656 L59.358,70.624 C46.496,49.992 25.745,37.096 10.654,36.236 C-4.437,35.377 -0.150,15.432 3.451,4.943 C7.053,-5.545 16.313,2.020 27.117,14.916 C37.921,27.811 50.269,36.236 59.701,44.146 C69.133,52.055 88.855,56.353 99.145,62.371 C109.434,68.389 100.173,71.656 100.173,71.656 ZM19.229,72.000 L9.968,72.000 L9.968,40.019 L18.886,41.051 L19.229,72.000 Z"/>
</symbol><symbol id="icon-t-shirt" viewBox="0 0 114 110">
  <path d="M106.916,56.102 C99.062,60.362 90.701,53.596 90.701,53.596 L91.715,103.710 C91.715,103.710 83.607,103.960 64.859,108.721 C46.111,113.482 24.829,103.209 24.829,103.209 L25.336,56.603 C25.336,56.603 31.416,55.100 23.309,56.102 C15.201,57.104 -0.000,45.077 -0.000,45.077 C-0.000,45.077 3.800,36.558 10.641,22.526 C17.481,8.494 21.282,9.998 23.309,9.496 C25.336,8.995 40.030,3.984 40.030,3.984 C59.032,16.262 74.487,2.481 74.487,2.481 L76.007,2.481 C76.007,2.481 79.554,4.986 86.141,7.492 C92.728,9.998 102.356,15.510 105.396,19.519 C108.436,23.528 114.010,52.093 114.010,52.093 C114.010,52.093 114.770,51.842 106.916,56.102 ZM41.615,2.481 L44.112,-0.000 C51.270,5.953 71.578,-0.000 71.578,-0.000 L73.243,1.654 C54.599,11.907 41.615,2.481 41.615,2.481 Z"/>
</symbol><symbol id="icon-trousers" viewBox="0 0 61 120">
  <path d="M58.188,48.400 C58.188,48.400 52.384,109.940 58.769,116.568 C58.769,116.568 41.356,120.355 35.552,118.461 C35.552,118.461 33.810,59.762 33.810,54.460 C33.810,49.158 30.328,43.477 30.328,43.477 C30.328,43.477 28.296,55.785 28.006,60.898 C27.716,66.010 25.684,118.840 25.684,118.840 C25.684,118.840 9.432,122.438 2.467,116.947 C2.467,116.947 6.240,82.295 5.369,65.442 C4.498,48.590 -2.177,19.997 0.726,13.938 C3.628,7.879 3.628,7.500 3.628,7.500 L57.028,8.257 C57.028,8.257 65.154,19.808 58.188,48.400 ZM4.946,-0.000 L54.405,-0.000 L56.054,6.667 L4.122,4.166 L4.946,-0.000 Z"/>
</symbol><symbol id="icon-twitter" viewBox="0 0 44 32">
  <path d="M39.010,14.316 C41.478,14.111 43.154,12.985 43.801,11.456 C42.910,12.005 40.143,12.608 38.614,12.032 C38.540,11.677 38.457,11.332 38.375,11.025 C37.209,6.733 33.226,3.281 29.049,3.701 C29.385,3.566 29.729,3.431 30.071,3.318 C30.532,3.157 33.230,2.715 32.803,1.757 C32.443,0.922 29.151,2.392 28.529,2.586 C29.348,2.279 30.704,1.751 30.849,0.803 C29.591,0.976 28.361,1.568 27.410,2.441 C27.753,2.064 28.014,1.611 28.069,1.126 C24.721,3.270 22.766,7.594 21.185,11.790 C19.942,10.578 18.841,9.630 17.855,9.102 C15.083,7.611 11.767,6.060 6.567,4.121 C6.408,5.844 7.416,8.144 10.329,9.668 C9.700,9.582 8.546,9.770 7.625,9.991 C7.999,11.973 9.226,13.599 12.550,14.386 C11.032,14.488 10.248,14.832 9.533,15.581 C10.227,16.954 11.915,18.575 14.951,18.242 C11.576,19.701 13.576,22.405 16.320,22.001 C11.638,26.853 4.249,26.498 0.007,22.437 C11.080,37.576 35.155,31.393 38.743,16.809 C41.433,16.836 43.014,15.872 43.993,14.822 C42.444,15.086 40.200,14.811 39.010,14.316 Z"/>
</symbol><symbol id="icon-umbrella" viewBox="0 0 94 91">
  <path d="M47.008,0.981 C44.676,0.981 42.699,3.231 42.023,6.377 C18.421,8.462 0.019,25.225 0.019,45.506 L0.259,45.506 C1.356,42.501 6.096,40.263 11.769,40.263 C17.440,40.263 22.167,42.501 23.264,45.506 L23.763,45.506 C24.856,42.501 29.587,40.263 35.256,40.263 C40.926,40.263 45.657,42.501 46.750,45.506 L47.249,45.506 C48.346,42.501 53.072,40.263 58.744,40.263 C64.416,40.263 69.157,42.501 70.253,45.506 L70.736,45.506 C71.832,42.501 76.560,40.263 82.229,40.263 C87.916,40.263 92.643,42.501 93.739,45.506 L93.981,45.506 C93.981,25.225 75.577,8.462 51.977,6.377 C51.301,3.231 49.324,0.981 47.008,0.981 L47.008,0.981 ZM41.781,46.568 L41.781,76.925 C41.781,78.383 40.623,79.546 39.169,79.546 C37.729,79.546 36.554,78.383 36.554,76.925 C36.554,74.022 34.238,71.695 31.344,71.695 C28.451,71.695 26.119,74.022 26.119,76.925 C26.119,77.296 26.132,77.654 26.210,77.986 C26.758,84.712 32.336,90.019 39.169,90.019 C46.369,90.019 52.219,84.163 52.219,76.925 L52.219,46.568 C49.695,47.501 47.873,49.010 47.249,50.736 L46.750,50.736 C46.127,49.010 44.303,47.501 41.781,46.568 L41.781,46.568 Z"/>
</symbol></svg>